:version 1.10
:name ASF
:units
  mass 1
  length 1
  angle deg
:documentation
  ASF file generated by Kaydara
:root
  axis xyz
  order  tx ty tz rx ry rz
  position 0 0 0
  orientation 0 0 0
:bonedata
  begin
    id 1
    name RightUpLegDummy
    direction -0.65628 -0.754516 0.00165102
    length 4.76918
    axis 0 0 0 xyz
  end
  begin
    id 2
    name RightUpLeg
    direction -0.145584 -0.923362 0.355256
    length 17.9961
    axis -24.7611 -13.1006 1.78531 xyz
    dof rx ry rz
  end
  begin
    id 3
    name RightLeg
    direction 0.263379 0.172355 -0.949171
    length 13.3386
    axis 89.6202 -21.1929 12.3855 xyz
    dof rx ry rz
  end
  begin
    id 4
    name RightFoot
    direction 0.224283 -0.968777 -0.105675
    length 5.86697
    axis 56.995 -39.6905 17.3365 xyz
    dof rx ry rz
  end
  begin
    id 5
    name RightToes
    direction -0.0806345 -0.9037 0.420506
    length 4.75197
    axis 146.825 -39.7828 17.6019 xyz
    dof rx ry rz
  end
  begin
    id 6
    name SpineDummy
    direction -3.39852e-014 1 9.33296e-014
    length 8.13779
    axis 0 0 0 xyz
  end
  begin
    id 7
    name Spine
    direction -0.156609 0.733703 0.661176
    length 7.14978
    axis 41.2365 5.68757 17.0844 xyz
    dof rx ry rz
  end
  begin
    id 8
    name Spine1
    direction 0 0 0
    length 0
    axis 42.8809 47.8308 -3.36039 xyz
    dof rx ry rz
  end
  begin
    id 9
    name HEadDummy
    direction 0.546431 0.701947 0.456819
    length 3.55512
    axis 42.8809 47.8308 -3.36039 xyz
  end
  begin
    id 10
    name HEad
    direction 0.23444 0.828559 0.508457
    length 7.35827
    axis 51.1864 49.2662 27.4903 xyz
    dof rx ry rz
  end
  begin
    id 11
    name LeftShoulder1Dummy
    direction 0.431183 0.475873 -0.766568
    length 2.49352
    axis 42.8809 47.8308 -3.36039 xyz
  end
  begin
    id 12
    name LeftShoulder1
    direction 0.268187 -0.383402 -0.883786
    length 4.48604
    axis -119.517 0.106469 35.1736 xyz
    dof rx ry rz
  end
  begin
    id 13
    name LeftArm
    direction 0.380567 -0.703221 -0.600541
    length 10.1142
    axis -5.41825 36.2925 7.8293 xyz
    dof rx ry rz
  end
  begin
    id 14
    name LeftForeArm
    direction 0.541071 -0.732356 -0.413396
    length 9.39839
    axis 4.65387 33.7604 7.81644 xyz
    dof rx ry rz
  end
  begin
    id 15
    name LeftHand
    direction 0.847511 -0.389379 -0.360707
    length 3.66142
    axis 7.65593 21.1436 -24.6758 xyz
    dof rx ry rz
  end
  begin
    id 16
    name RightShoulderDummy
    direction -0.692546 0.541855 0.476208
    length 2.49352
    axis 42.8809 47.8308 -3.36039 xyz
  end
  begin
    id 17
    name RightShoulder
    direction -0.870808 -0.316653 0.376065
    length 4.48602
    axis 141.571 51.133 -100.254 xyz
    dof rx ry rz
  end
  begin
    id 18
    name RightArm
    direction 0.366897 -0.87275 0.322015
    length 10.1142
    axis 92.3258 71.2036 138.917 xyz
    dof rx ry rz
  end
  begin
    id 19
    name RightForeArm
    direction 0.702487 -0.694568 0.155197
    length 9.39835
    axis 153.863 41.5092 -176.604 xyz
    dof rx ry rz
  end
  begin
    id 20
    name RightHand
    direction 0.79502 -0.601276 0.0800636
    length 3.66142
    axis 154.247 4.59222 142.9 xyz
    dof rx ry rz
  end
  begin
    id 21
    name LeftUpLegDummy
    direction 0.65628 -0.754516 0.00165102
    length 4.76919
    axis 0 0 0 xyz
  end
  begin
    id 22
    name LeftUpLeg
    direction -0.1277 -0.689368 0.713067
    length 17.9961
    axis -48.3385 -17.8675 0.791927 xyz
    dof rx ry rz
  end
  begin
    id 23
    name LeftLeg
    direction 0.109849 -0.991246 -0.0732378
    length 13.3386
    axis -2.05791 -7.30784 1.72042 xyz
    dof rx ry rz
  end
  begin
    id 24
    name LeftFoot
    direction 0.0448355 -0.272614 0.961078
    length 5.86697
    axis -18.7733 -7.89606 10.2113 xyz
    dof rx ry rz
  end
  begin
    id 25
    name LeftToes
    direction -0.18506 0.293668 0.937823
    length 4.75197
    axis 71.2267 -7.89606 10.2113 xyz
    dof rx ry rz
  end
:hierarchy
  begin
    root RightUpLegDummy SpineDummy LeftUpLegDummy
    RightUpLegDummy RightUpLeg
    RightUpLeg RightLeg
    RightLeg RightFoot
    RightFoot RightToes
    SpineDummy Spine
    Spine Spine1
    Spine1 HEadDummy LeftShoulder1Dummy RightShoulderDummy
    HEadDummy HEad
    LeftShoulder1Dummy LeftShoulder1
    LeftShoulder1 LeftArm
    LeftArm LeftForeArm
    LeftForeArm LeftHand
    RightShoulderDummy RightShoulder
    RightShoulder RightArm
    RightArm RightForeArm
    RightForeArm RightHand
    LeftUpLegDummy LeftUpLeg
    LeftUpLeg LeftLeg
    LeftLeg LeftFoot
    LeftFoot LeftToes
  end

:SAMPLES-PER-SECOND 30
:FULLY-SPECIFIED
:DEGREES
572
root  1.5294 37.8295 -25.6967 170.589 -5.62345 173.224
RightUpLeg  -1.88379 12.6836 -6.95794
RightLeg  -42.0623 -18.5726 0.852948
RightFoot  20.4048 3.6497 -14.1025
RightToes  -1.27222e-014 -6.36111e-015 6.36111e-015
Spine  -24.0776 -23.0049 -18.5998
Spine1  8.74934 -16.462 44.1802
HEad  5.32819 -13.3585 -16.8007
LeftShoulder1  6.36111e-015 -1.33558e-015 6.49777e-015
LeftArm  12.5914 -10.1786 -11.8798
LeftForeArm  -35.656 -40.7866 15.2039
LeftHand  -1.16143 -1.39441 -8.94905
RightShoulder  -4.77083e-015 -6.36111e-015 -3.18055e-015
RightArm  68.2884 -20.4422 -64.669
RightForeArm  -50.5935 14.0205 -39.7118
RightHand  0.956821 -1.92979 -4.19974
LeftUpLeg  38.7329 23.3248 19.9903
LeftLeg  -6.06059 -12.1371 -1.0602
LeftFoot  2.92192 5.37746 -16.5152
LeftToes  9.54166e-015 4.2066e-011 -8.07781e-011
573
root  1.32763 38.4386 -26.7263 170.603 -4.24135 173.052
RightUpLeg  -0.0377542 14.3089 -7.50215
RightLeg  -53.2283 -17.4556 1.67096
RightFoot  20.4248 3.5398 -13.9388
RightToes  -1.27222e-014 -6.36111e-015 6.36111e-015
Spine  -25.9871 -24.3976 -17.6695
Spine1  6.26243 -18.0144 46.4197
HEad  8.4217 -8.20343 -17.0163
LeftShoulder1  6.36111e-015 -1.33558e-015 6.49777e-015
LeftArm  17.0515 -9.89629 -7.91322
LeftForeArm  -24.9521 -40.6777 11.5702
LeftHand  -0.695942 0.28387 -9.48765
RightShoulder  -4.77083e-015 -6.36111e-015 -3.18055e-015
RightArm  63.825 -16.2085 -61.2837
RightForeArm  -44.6337 14.2448 -36.4159
RightHand  0.479007 -0.995913 -2.17631
LeftUpLeg  41.6836 22.2019 20.1731
LeftLeg  -8.32094 -15.9821 -0.75636
LeftFoot  5.62941 6.75512 -19.1822
LeftToes  9.54166e-015 4.2066e-011 -8.07781e-011
574
root  1.1333 38.8464 -27.7279 170.145 -2.55496 172.789
RightUpLeg  3.01799 16.949 -7.67516
RightLeg  -66.3243 -16.2914 3.027
RightFoot  20.3778 3.75585 -14.2594
RightToes  -1.27222e-014 -6.36111e-015 6.36111e-015
Spine  -27.7675 -24.8458 -16.6076
Spine1  5.27027 -18.7621 48.4036
HEad  9.49065 -4.55767 -17.56
LeftShoulder1  6.36111e-015 -1.33558e-015 6.49777e-015
LeftArm  22.4695 -12.8199 -7.01395
LeftForeArm  -15.7172 -35.9036 5.92412
LeftHand  -0.351014 1.26243 -8.91276
RightShoulder  -4.77083e-015 -6.36111e-015 -3.18055e-015
RightArm  59.5897 -11.6601 -58.3344
RightForeArm  -37.22 14.1106 -32.0653
RightHand  -0.0274359 0.569546 -0.52951
LeftUpLeg  44.7603 19.4189 17.5852
LeftLeg  -11.2359 -20.5658 0.0637963
LeftFoot  7.27116 7.47479 -20.2872
LeftToes  9.54166e-015 4.2066e-011 -8.07781e-011
575
root  0.92247 39.0462 -28.7017 169.95 -0.234919 172.54
RightUpLeg  5.98073 19.3177 -7.68867
RightLeg  -80.4589 -14.1601 3.40532
RightFoot  19.5614 4.17942 -14.7554
RightToes  -1.27222e-014 -6.36111e-015 6.36111e-015
Spine  -30.033 -23.8899 -14.6734
Spine1  4.97432 -18.4948 49.5709
HEad  9.50322 -2.12409 -17.9051
LeftShoulder1  6.36111e-015 -1.33558e-015 6.49777e-015
LeftArm  30.1604 -18.8083 -9.93894
LeftForeArm  -10.3603 -26.2898 1.20652
LeftHand  -0.410535 1.06991 -8.92461
RightShoulder  -4.77083e-015 -6.36111e-015 -3.18055e-015
RightArm  56.9251 -6.89577 -55.7358
RightForeArm  -29.9487 13.5113 -27.6095
RightHand  -0.408612 2.07835 0.480454
LeftUpLeg  48.2916 16.6128 13.5584
LeftLeg  -15.9738 -23.6369 1.63307
LeftFoot  6.55553 7.12009 -19.7076
LeftToes  9.54166e-015 4.2066e-011 -8.07781e-011
576
root  0.798902 38.9618 -29.6518 170.704 2.67163 172.21
RightUpLeg  7.36707 21.7036 -7.33666
RightLeg  -91.8558 -12.0013 0.733839
RightFoot  20.5247 3.20464 -13.4489
RightToes  -1.27222e-014 -6.36111e-015 6.36111e-015
Spine  -32.1591 -22.5635 -13.0002
Spine1  3.66768 -17.7389 50.2573
HEad  9.29261 -0.168324 -17.4032
LeftShoulder1  6.36111e-015 -1.33558e-015 6.49777e-015
LeftArm  41.6584 -24.667 -16.5322
LeftForeArm  -8.51135 -15.5948 -1.2073
LeftHand  -0.806884 0.278122 -10.8118
RightShoulder  -4.77083e-015 -6.36111e-015 -3.18055e-015
RightArm  56.1415 -1.75311 -51.5215
RightForeArm  -22.6509 11.3381 -22.222
RightHand  -0.62931 3.19274 0.788682
LeftUpLeg  51.4134 16.1154 11.462
LeftLeg  -20.6531 -23.4537 3.08371
LeftFoot  3.95748 5.94722 -17.7151
LeftToes  9.54166e-015 4.2066e-011 -8.07781e-011
577
root  0.795913 38.6379 -30.4919 171.939 6.19389 172.284
RightUpLeg  6.43901 25.4677 -5.39278
RightLeg  -95.144 -11.4714 -1.96152
RightFoot  23.3667 1.35333 -11.3689
RightToes  -1.27222e-014 -6.36111e-015 6.36111e-015
Spine  -32.3048 -21.3886 -12.5399
Spine1  0.427788 -16.6327 52.2557
HEad  8.92423 2.26498 -17.67
LeftShoulder1  6.36111e-015 -1.33558e-015 6.49777e-015
LeftArm  44.9146 -23.7957 -15.8038
LeftForeArm  -2.34143 -15.3385 -5.11797
LeftHand  -0.86033 0.576242 -12.4501
RightShoulder  -4.77083e-015 -6.36111e-015 -3.18055e-015
RightArm  57.3385 4.45445 -43.5108
RightForeArm  -15.1248 6.37007 -15.7033
RightHand  -0.777837 4.10578 0.735875
LeftUpLeg  53.5787 17.1289 11.4511
LeftLeg  -23.2111 -19.4952 2.71144
LeftFoot  0.441691 4.41622 -14.6215
LeftToes  9.54166e-015 4.2066e-011 -8.07781e-011
578
root  0.901809 38.1692 -31.1411 172.998 9.57811 173.033
RightUpLeg  3.65784 28.6412 -2.42822
RightLeg  -89.484 -11.6396 -3.65575
RightFoot  24.1845 1.59197 -11.904
RightToes  -1.27222e-014 -6.36111e-015 6.36111e-015
Spine  -30.0553 -20.5663 -13.4043
Spine1  -2.40608 -15.3241 56.1137
HEad  6.88464 5.26147 -20.6947
LeftShoulder1  6.36111e-015 -1.33558e-015 6.49777e-015
LeftArm  42.0448 -17.8309 -10.5924
LeftForeArm  5.83023 -21.3737 -8.76532
LeftHand  0.260962 3.9697 -10.6906
RightShoulder  -4.77083e-015 -6.36111e-015 -3.18055e-015
RightArm  61.5257 10.979 -32.2784
RightForeArm  -10.6079 -2.43384 -9.85728
RightHand  -0.874133 4.84536 0.401892
LeftUpLeg  53.4378 16.7171 9.52597
LeftLeg  -21.5032 -11.9344 0.108862
LeftFoot  -4.2682 3.21934 -12.4393
LeftToes  9.54166e-015 4.2066e-011 -8.07781e-011
579
root  1.13974 37.6677 -31.6561 173.873 11.09 173.947
RightUpLeg  1.17775 29.3336 -0.0796799
RightLeg  -81.9984 -11.8818 -3.7457
RightFoot  21.4553 3.83094 -14.5807
RightToes  -1.27222e-014 -6.36111e-015 6.36111e-015
Spine  -27.6064 -19.9378 -13.9711
Spine1  -1.90873 -14.7468 59.2285
HEad  2.06709 7.00788 -25.5993
LeftShoulder1  6.36111e-015 -1.33558e-015 6.49777e-015
LeftArm  40.1476 -11.6062 -9.03436
LeftForeArm  10.7806 -25.386 -10.7996
LeftHand  3.2749 10.7348 -4.76453
RightShoulder  -4.77083e-015 -6.36111e-015 -3.18055e-015
RightArm  63.5986 14.0494 -26.359
RightForeArm  -9.33929 -10.0537 -4.81991
RightHand  -0.885327 5.16622 -0.129496
LeftUpLeg  50.0849 14.3142 5.60287
LeftLeg  -14.0078 -4.99628 -1.42739
LeftFoot  -8.54065 3.11764 -14.1525
LeftToes  9.54166e-015 4.2066e-011 -8.07781e-011
580
root  1.44693 37.3463 -32.1566 174.843 9.96991 174.947
RightUpLeg  0.575773 28.9544 1.59777
RightLeg  -78.236 -12.5961 -2.00015
RightFoot  18.0526 4.72861 -15.3455
RightToes  -1.27222e-014 -6.36111e-015 6.36111e-015
Spine  -26.9586 -17.9919 -10.9598
Spine1  1.24851 -14.9927 59.0032
HEad  -3.61825 5.51457 -29.145
LeftShoulder1  6.36111e-015 -1.33558e-015 6.49777e-015
LeftArm  39.7672 -8.91933 -12.2439
LeftForeArm  12.0267 -25.541 -11.9615
LeftHand  7.10316 17.2023 1.6528
RightShoulder  -4.77083e-015 -6.36111e-015 -3.18055e-015
RightArm  52.9559 9.69914 -37.6609
RightForeArm  -3.61138 -6.19626 1.4874
RightHand  -0.969112 5.57988 0.00342968
LeftUpLeg  44.4221 11.2403 2.93684
LeftLeg  -2.28246 -1.94883 -0.635658
LeftFoot  -6.96419 4.01974 -17.1506
LeftToes  9.54166e-015 4.2066e-011 -8.07781e-011
581
root  1.79711 37.0772 -32.7408 175.56 7.83276 176.295
RightUpLeg  1.42065 28.8346 3.65553
RightLeg  -76.3839 -13.4233 -0.217247
RightFoot  16.2113 3.51002 -12.9852
RightToes  -1.27222e-014 -6.36111e-015 6.36111e-015
Spine  -27.2966 -13.8916 -4.62781
Spine1  4.69891 -14.6456 55.6332
HEad  -7.69222 1.54437 -29.9596
LeftShoulder1  6.36111e-015 -1.33558e-015 6.49777e-015
LeftArm  43.6453 -9.93579 -20.7695
LeftForeArm  6.87535 -22.638 -9.17196
LeftHand  7.49198 17.7021 2.36188
RightShoulder  -4.77083e-015 -6.36111e-015 -3.18055e-015
RightArm  51.3188 0.281359 -43.5805
RightForeArm  -3.07029 -6.74704 1.36244
RightHand  -1.32787 6.95863 1.73839
LeftUpLeg  37.2037 8.86343 2.73906
LeftLeg  11.7006 -0.232881 1.16081
LeftFoot  2.47273 4.85212 -15.1109
LeftToes  9.54166e-015 4.2066e-011 -8.07781e-011
582
root  2.23591 36.6095 -33.411 175.305 6.93455 177.78
RightUpLeg  2.3539 27.8822 5.95661
RightLeg  -72.5714 -13.8376 -0.172246
RightFoot  14.0464 2.4336 -10.6229
RightToes  -1.27222e-014 -6.36111e-015 6.36111e-015
Spine  -26.6151 -9.77592 0.228057
Spine1  7.15047 -13.2732 51.9352
HEad  -10.2716 -2.07628 -30.1376
LeftShoulder1  6.36111e-015 -1.33558e-015 6.49777e-015
LeftArm  48.2123 -8.78737 -29.5669
LeftForeArm  -1.43738 -20.845 -2.37504
LeftHand  3.92906 11.4113 -2.57528
RightShoulder  -4.77083e-015 -6.36111e-015 -3.18055e-015
RightArm  58.7659 -7.13225 -37.1393
RightForeArm  -10.4943 -12.5518 -3.88827
RightHand  -1.78162 9.18102 3.77386
LeftUpLeg  30.5952 8.78293 5.35044
LeftLeg  24.5772 2.3609 4.30882
LeftFoot  12.2927 4.02399 -9.71634
LeftToes  9.54166e-015 4.2066e-011 -8.07781e-011
